<svg width="16" height="16" viewBox="0 0 16 16" fill="none" xmlns="http://www.w3.org/2000/svg">
<path d="M7.99999 8.6665C8.36818 8.6665 8.66666 8.36803 8.66666 7.99984C8.66666 7.63165 8.36818 7.33317 7.99999 7.33317C7.63181 7.33317 7.33333 7.63165 7.33333 7.99984C7.33333 8.36803 7.63181 8.6665 7.99999 8.6665Z" stroke="#99A1AF" stroke-linecap="round" stroke-linejoin="round"/>
<path d="M7.99999 3.99984C8.36818 3.99984 8.66666 3.70136 8.66666 3.33317C8.66666 2.96498 8.36818 2.6665 7.99999 2.6665C7.63181 2.6665 7.33333 2.96498 7.33333 3.33317C7.33333 3.70136 7.63181 3.99984 7.99999 3.99984Z" stroke="#99A1AF" stroke-linecap="round" stroke-linejoin="round"/>
<path d="M7.99999 13.3332C8.36818 13.3332 8.66666 13.0347 8.66666 12.6665C8.66666 12.2983 8.36818 11.9998 7.99999 11.9998C7.63181 11.9998 7.33333 12.2983 7.33333 12.6665C7.33333 13.0347 7.63181 13.3332 7.99999 13.3332Z" stroke="#99A1AF" stroke-linecap="round" stroke-linejoin="round"/>
</svg>
