<svg width="254" height="144" viewBox="0 0 254 144" fill="none" xmlns="http://www.w3.org/2000/svg">
<rect width="254" height="144" rx="8" fill="url(#paint0_linear_84_50245)"/>
<path d="M46.0259 7.00046L46.0259 16.0261" stroke="#E5E7EB" stroke-linejoin="round"/>
<path d="M46 94L46 141" stroke="#E5E7EB" stroke-linejoin="round"/>
<g clip-path="url(#clip0_84_50245)">
<mask id="path-4-inside-1_84_50245" fill="white">
<path d="M67 19.0342C67 12.3879 72.3879 7 79.0342 7H210V141H67V19.0342Z"/>
</mask>
<circle cx="94.0769" cy="34.0781" r="15.0427" fill="#F3F4F6"/>
<rect x="79" y="61" width="113" height="10" rx="5" fill="#F3F4F6"/>
<rect x="115.5" y="29" width="77" height="10" rx="5" fill="#F3F4F6"/>
<rect x="79" y="75" width="131" height="10" rx="5" fill="#F3F4F6"/>
<rect x="79" y="89" width="131" height="10" rx="5" fill="#F3F4F6"/>
<rect x="79" y="109" width="78" height="20" rx="2" fill="#F3F4F6"/>
<rect x="161" y="109" width="52" height="20" rx="2" fill="#F3F4F6"/>
</g>
<path d="M66 19.0342C66 11.8356 71.8356 6 79.0342 6H210V8H79.0342C72.9402 8 68 12.9402 68 19.0342H66ZM68 19.0342M210 141H67H210M66 141V19.0342C66 11.8356 71.8356 6 79.0342 6V8C72.9402 8 68 12.9402 68 19.0342V141H66ZM68 141M210 7V141V7" fill="#E5E7EB" mask="url(#path-4-inside-1_84_50245)"/>
<path d="M37 22.043C37 20.3814 38.347 19.0344 40.0085 19.0344H52.0427C53.7043 19.0344 55.0513 20.3814 55.0513 22.043V43.1028H37V22.043Z" fill="#F3F4F6"/>
<path d="M37 22.043C37 20.3814 38.347 19.0344 40.0085 19.0344H52.0427C53.7043 19.0344 55.0513 20.3814 55.0513 22.043V43.1028H37V22.043Z" stroke="#E5E7EB"/>
<path d="M46.0255 26.556V35.5817M41.5127 31.0689H50.5383" stroke="#D1D5DC" stroke-width="1.50427" stroke-linecap="round" stroke-linejoin="round"/>
<path d="M37 67.1709H55.0513V88.2307C55.0513 89.8923 53.7043 91.2393 52.0427 91.2393H40.0085C38.347 91.2393 37 89.8923 37 88.2307V67.1709Z" fill="#F3F4F6"/>
<path d="M37 67.1709H55.0513V88.2307C55.0513 89.8923 53.7043 91.2393 52.0427 91.2393H40.0085C38.347 91.2393 37 89.8923 37 88.2307V67.1709Z" stroke="#E5E7EB"/>
<g clip-path="url(#clip1_84_50245)">
<path d="M48.5329 75.4433V74.9419C48.5329 74.2398 48.5329 73.8888 48.3963 73.6206C48.2761 73.3848 48.0843 73.193 47.8485 73.0728C47.5803 72.9362 47.2293 72.9362 46.5272 72.9362H45.5244C44.8223 72.9362 44.4713 72.9362 44.2031 73.0728C43.9673 73.193 43.7755 73.3848 43.6553 73.6206C43.5187 73.8888 43.5187 74.2398 43.5187 74.9419V75.4433M40.3848 75.4433H51.6668M50.4133 75.4433V82.4632C50.4133 83.5163 50.4133 84.0429 50.2083 84.4451C50.028 84.7989 49.7404 85.0866 49.3866 85.2668C48.9843 85.4718 48.4578 85.4718 47.4047 85.4718H44.6469C43.5938 85.4718 43.0672 85.4718 42.665 85.2668C42.3112 85.0866 42.0235 84.7989 41.8433 84.4451C41.6383 84.0429 41.6383 83.5163 41.6383 82.4632V75.4433" stroke="#D1D5DC" stroke-width="1.50427" stroke-linecap="round" stroke-linejoin="round"/>
</g>
<g filter="url(#filter0_ddd_84_50245)">
<rect x="37" y="43.1025" width="18.0513" height="24.0684" rx="2" fill="#DAEAFF" shape-rendering="crispEdges"/>
<rect x="37" y="43.1025" width="18.0513" height="24.0684" rx="2" stroke="#3583FC" shape-rendering="crispEdges"/>
<path d="M40.3848 49.4966V55.8897C40.3848 56.9428 40.3848 57.4693 40.5897 57.8716C40.77 58.2254 41.0576 58.513 41.4115 58.6933C41.8137 58.8983 42.3402 58.8983 43.3933 58.8983H47.9061M47.9061 58.8983C47.9061 59.9367 48.748 60.7786 49.7865 60.7786C50.825 60.7786 51.6668 59.9367 51.6668 58.8983C51.6668 57.8598 50.825 57.0179 49.7865 57.0179C48.748 57.0179 47.9061 57.8598 47.9061 58.8983ZM40.3848 52.6305L47.9061 52.6305M47.9061 52.6305C47.9061 53.6689 48.748 54.5108 49.7865 54.5108C50.825 54.5108 51.6668 53.6689 51.6668 52.6305C51.6668 51.592 50.825 50.7501 49.7865 50.7501C48.748 50.7501 47.9061 51.592 47.9061 52.6305Z" stroke="#0A3FBC" stroke-width="1.50427" stroke-linecap="round" stroke-linejoin="round"/>
</g>
<defs>
<filter id="filter0_ddd_84_50245" x="30.5" y="38.6025" width="31.0513" height="37.0684" filterUnits="userSpaceOnUse" color-interpolation-filters="sRGB">
<feFlood flood-opacity="0" result="BackgroundImageFix"/>
<feColorMatrix in="SourceAlpha" type="matrix" values="0 0 0 0 0 0 0 0 0 0 0 0 0 0 0 0 0 0 127 0" result="hardAlpha"/>
<feOffset dy="2"/>
<feGaussianBlur stdDeviation="3"/>
<feComposite in2="hardAlpha" operator="out"/>
<feColorMatrix type="matrix" values="0 0 0 0 0 0 0 0 0 0 0 0 0 0 0 0 0 0 0.06 0"/>
<feBlend mode="normal" in2="BackgroundImageFix" result="effect1_dropShadow_84_50245"/>
<feColorMatrix in="SourceAlpha" type="matrix" values="0 0 0 0 0 0 0 0 0 0 0 0 0 0 0 0 0 0 127 0" result="hardAlpha"/>
<feMorphology radius="1" operator="erode" in="SourceAlpha" result="effect2_dropShadow_84_50245"/>
<feOffset dy="2"/>
<feGaussianBlur stdDeviation="3.5"/>
<feComposite in2="hardAlpha" operator="out"/>
<feColorMatrix type="matrix" values="0 0 0 0 0 0 0 0 0 0 0 0 0 0 0 0 0 0 0.05 0"/>
<feBlend mode="normal" in2="effect1_dropShadow_84_50245" result="effect2_dropShadow_84_50245"/>
<feColorMatrix in="SourceAlpha" type="matrix" values="0 0 0 0 0 0 0 0 0 0 0 0 0 0 0 0 0 0 127 0" result="hardAlpha"/>
<feOffset dy="1"/>
<feGaussianBlur stdDeviation="2"/>
<feComposite in2="hardAlpha" operator="out"/>
<feColorMatrix type="matrix" values="0 0 0 0 0 0 0 0 0 0 0 0 0 0 0 0 0 0 0.1 0"/>
<feBlend mode="normal" in2="effect2_dropShadow_84_50245" result="effect3_dropShadow_84_50245"/>
<feBlend mode="normal" in="SourceGraphic" in2="effect3_dropShadow_84_50245" result="shape"/>
</filter>
<linearGradient id="paint0_linear_84_50245" x1="127" y1="0" x2="127" y2="144" gradientUnits="userSpaceOnUse">
<stop stop-color="white"/>
<stop offset="1" stop-color="white" stop-opacity="0"/>
</linearGradient>
<clipPath id="clip0_84_50245">
<path d="M67 19.0342C67 12.3879 72.3879 7 79.0342 7H210V141H67V19.0342Z" fill="white"/>
</clipPath>
<clipPath id="clip1_84_50245">
<rect width="15.0427" height="15.0427" fill="white" transform="translate(38.5044 71.6826)"/>
</clipPath>
</defs>
</svg>
